<?xml version="1.0" standalone="no"?>
<!DOCTYPE svg PUBLIC "-//W3C//DTD SVG 20010904//EN"
 "http://www.w3.org/TR/2001/REC-SVG-20010904/DTD/svg10.dtd">
<svg version="1.0" xmlns="http://www.w3.org/2000/svg"
 width="1024.000000pt" height="1024.000000pt" viewBox="0 0 1024.000000 1024.000000"
 preserveAspectRatio="xMidYMid meet">

<g transform="translate(0.000000,1024.000000) scale(0.100000,-0.100000)"
fill="#000000" stroke="none">
<path d="M3143 8701 c-53 -14 -122 -60 -149 -101 -42 -64 -54 -121 -54 -264
l0 -131 -152 3 c-341 7 -516 -44 -706 -206 -116 -99 -209 -262 -242 -423 -19
-91 -20 -153 -20 -2171 l0 -2077 -139 -138 c-107 -106 -146 -152 -170 -200
-91 -183 -54 -392 96 -542 160 -159 358 -190 563 -88 69 34 103 59 181 137
l95 95 53 -37 c29 -20 80 -47 114 -60 l62 -23 2165 -3 2165 -3 80 26 c44 15
85 28 91 31 6 3 37 -28 69 -68 131 -165 176 -196 262 -183 83 12 186 130 436
501 363 538 587 933 690 1214 138 374 84 774 -150 1129 -105 159 -337 361
-496 431 l-46 21 -3 987 c-4 1090 1 1010 -68 1176 -64 153 -209 305 -364 381
-152 75 -213 87 -492 92 l-242 5 -4 147 c-4 134 -6 150 -30 196 -31 59 -67 95
-125 124 -102 51 -206 32 -288 -52 -66 -68 -75 -102 -75 -276 l0 -141 -1394 0
-1394 0 -4 153 c-3 142 -5 155 -30 203 -53 101 -180 161 -285 135z m137 -73
c24 -13 58 -40 74 -61 l31 -39 0 -396 0 -397 -32 -46 c-38 -55 -84 -79 -150
-79 -108 1 -176 64 -194 182 -6 37 -9 204 -7 389 3 323 3 324 27 367 53 92
160 126 251 80z m3324 -9 c55 -37 86 -88 96 -160 9 -60 14 -617 6 -608 -5 5
-15 215 -17 349 -1 58 -4 89 -6 71 -3 -19 -12 -41 -21 -49 -16 -13 -16 -13 0
-8 12 3 15 1 11 -10 -3 -7 -10 -14 -16 -14 -6 0 -7 -3 -4 -7 4 -3 3 -11 -2
-17 -4 -6 -11 -60 -15 -121 -3 -60 -9 -123 -13 -140 -3 -16 -6 -38 -7 -47 0
-10 -3 -18 -7 -18 -8 0 -22 -40 -20 -54 1 -5 -5 -4 -13 4 -10 7 -16 8 -16 2 0
-6 4 -13 9 -16 15 -10 -12 -55 -37 -61 -44 -11 -116 6 -141 34 l-25 26 -6 350
-6 350 -3 -300 c-2 -165 -7 -286 -11 -270 l-8 30 -3 -35 c-10 -123 3 -178 55
-240 11 -14 4 -9 -16 11 -21 21 -41 54 -48 78 -7 28 -10 162 -8 410 l3 369 31
39 c49 60 98 84 166 80 39 -2 67 -11 92 -28z m-3664 -574 c0 -14 -4 -25 -10
-25 -5 0 -10 9 -10 20 0 19 -6 20 -132 18 l-133 -2 128 -3 c96 -3 127 -7 124
-16 -3 -9 -55 -13 -193 -15 -208 -3 -268 -13 -369 -63 -34 -16 -85 -51 -114
-76 -41 -36 -55 -43 -64 -33 -9 10 -9 14 1 17 6 3 10 8 7 13 -6 10 66 71 113
94 17 9 32 19 32 22 0 9 -66 -30 -124 -74 -98 -76 -189 -218 -220 -348 -8 -33
-15 -49 -15 -36 -2 38 45 164 85 232 52 89 149 180 243 229 124 64 155 70 419
70 l232 1 0 -25z m3305 -34 c4 -33 4 -65 0 -70 -4 -8 -432 -11 -1391 -11
l-1384 0 0 40 0 40 1380 0 c759 0 1380 3 1380 8 0 4 -621 6 -1380 5 l-1380 -2
0 24 0 25 1384 0 1384 0 7 -59z m898 52 c-67 -2 -179 -2 -250 0 -70 1 -15 3
122 3 138 0 195 -2 128 -3z m170 -10 c-7 -2 -19 -2 -25 0 -7 3 -2 5 12 5 14 0
19 -2 13 -5z m72 -18 c39 -17 21 -18 -25 0 -19 7 -28 14 -20 14 8 0 29 -6 45
-14z m124 -58 c64 -37 168 -138 194 -188 13 -24 14 -28 3 -14 -9 11 -33 41
-53 67 -41 52 -104 103 -185 149 -29 17 -44 28 -33 24 11 -3 45 -20 74 -38z
m-4569 -7 l0 -40 -196 0 c-222 0 -277 -9 -386 -67 -133 -69 -225 -188 -268
-345 -19 -69 -20 -98 -18 -302 2 -146 -1 -226 -7 -226 -6 0 -10 102 -9 288 0
267 2 292 22 353 56 169 188 298 365 355 66 21 90 23 285 24 l212 0 0 -40z
m4313 24 c210 -46 368 -183 433 -374 23 -68 24 -83 22 -288 l-2 -217 -6 180
c-8 196 -18 245 -73 349 -67 127 -228 247 -369 275 -29 6 -150 12 -268 13
l-214 3 -4 38 -3 37 206 0 c152 0 225 -4 278 -16z m-4358 -105 c-86 -76 -107
-191 -55 -296 99 -197 359 -268 573 -156 154 81 224 240 161 365 -9 18 -35 52
-57 75 l-41 43 1350 -1 c742 -1 1341 -3 1331 -6 -12 -3 -16 -10 -13 -20 5 -11
2 -14 -11 -9 -16 5 -16 4 1 -9 20 -16 37 -12 32 8 -1 7 -1 8 2 4 2 -4 10 -3
18 4 8 6 12 14 10 18 -3 4 4 8 15 8 16 2 11 -8 -25 -48 -56 -62 -70 -104 -63
-185 8 -108 79 -198 201 -255 165 -77 354 -51 483 65 130 117 138 268 21 385
-22 23 -36 41 -30 41 20 0 92 -96 113 -150 17 -44 20 -71 17 -131 -8 -138 -86
-251 -216 -312 -64 -31 -72 -32 -192 -32 -120 0 -128 1 -193 32 -90 43 -167
117 -202 194 -24 55 -27 69 -23 152 3 82 14 122 45 178 3 5 -39 29 -59 35 -5
1 -11 2 -15 3 -5 2 1 6 12 11 14 6 4 8 -35 8 -33 -1 -42 -3 -22 -5 36 -5 41
-19 15 -39 -17 -13 -17 -14 2 -8 16 5 17 4 5 -5 -11 -8 -18 -6 -29 7 -12 16
-13 15 -8 -5 3 -13 1 -23 -3 -23 -5 0 -10 -17 -12 -37 -2 -20 -9 -39 -17 -41
-8 -3 -11 0 -7 6 4 7 -3 10 -17 8 -32 -3 -47 -14 -47 -34 0 -15 2 -15 10 -2 5
8 10 11 10 5 0 -5 4 -4 9 4 11 17 31 6 31 -17 0 -15 -2 -15 -10 -2 -8 12 -10
12 -10 1 0 -8 -3 -11 -7 -8 -3 4 -12 2 -19 -4 -8 -6 -20 -9 -28 -6 -8 3 -17
-1 -19 -9 -3 -9 -4 -7 -3 3 1 10 7 17 12 16 5 -1 11 7 11 18 1 10 -3 19 -8 19
-6 0 -7 -4 -4 -10 3 -5 -5 -12 -19 -16 -13 -3 -27 -13 -31 -21 -4 -13 -3 -14
10 -3 10 8 15 9 15 1 0 -6 -3 -11 -7 -12 -5 0 -17 -2 -28 -3 -16 -2 -21 4 -23
23 -3 33 -12 41 -12 9 0 -17 -8 -28 -25 -36 -31 -14 -32 -6 -2 19 l22 20 -28
-17 c-33 -20 -49 -11 -21 12 18 15 18 15 -2 5 -12 -6 -24 -17 -27 -24 -3 -8
-15 -17 -27 -20 -16 -4 -19 -3 -10 7 7 10 6 17 -4 26 -21 16 -41 3 -25 -16 12
-15 6 -29 -14 -29 -13 -1 -27 14 -27 29 0 5 10 1 23 -10 l22 -19 -19 22 c-18
22 -19 22 -43 3 -18 -14 -30 -17 -48 -10 -12 5 -32 6 -44 3 -13 -3 -21 -1 -21
7 0 7 -6 6 -16 -4 -8 -9 -20 -14 -25 -11 -5 4 -9 -2 -9 -12 0 -15 -2 -16 -10
-3 -8 12 -10 12 -10 -5 -1 -16 -4 -13 -15 10 -7 17 -14 24 -14 16 -1 -9 -9
-12 -26 -9 -14 3 -23 1 -22 -6 1 -6 -4 -10 -11 -8 -8 1 -11 -2 -8 -7 4 -5 -7
-9 -23 -9 -17 1 -28 5 -25 10 3 4 1 8 -5 8 -5 0 -18 3 -28 6 -16 6 -16 5 2 -9
13 -11 15 -16 6 -17 -7 0 -11 -6 -8 -14 4 -10 0 -14 -14 -13 -10 1 -19 5 -19
10 0 4 -4 6 -9 2 -5 -3 -15 0 -23 7 -19 18 -41 21 -35 6 3 -9 -3 -13 -17 -13
-30 2 -48 14 -40 28 4 7 3 8 -1 4 -13 -11 -15 -38 -3 -31 7 5 8 2 3 -6 -6 -10
-11 -9 -22 6 -13 18 -14 17 -9 -10 l5 -29 -23 22 c-26 25 -36 27 -36 6 0 -8
-7 -15 -16 -15 -9 0 -12 5 -8 13 4 6 -2 3 -15 -7 -18 -16 -24 -17 -34 -6 -10
10 -8 12 8 6 16 -6 17 -5 8 5 -9 9 -15 9 -27 0 -7 -6 -18 -11 -22 -10 -5 1
-11 0 -14 -1 -3 -2 -21 -4 -40 -5 -19 -2 -35 -4 -35 -5 0 -1 -11 -3 -25 -6
-19 -3 -21 -2 -10 5 8 6 12 13 8 16 -3 3 -13 -1 -21 -10 -19 -18 -31 -20 -21
-2 4 6 4 9 -1 5 -4 -4 -14 -3 -22 3 -10 9 -13 8 -13 -5 0 -9 5 -15 11 -14 6 2
14 -3 16 -9 6 -18 -12 -16 -31 2 -8 8 -18 15 -22 15 -4 0 -13 8 -20 18 -13 15
-13 15 -6 -6 4 -13 12 -23 16 -22 10 2 26 -20 26 -35 0 -5 -4 -4 -9 3 -4 7
-17 15 -27 16 -10 2 -18 11 -18 20 1 9 -2 16 -7 16 -5 0 -10 -10 -10 -22 -1
-18 -2 -19 -6 -5 -3 10 0 24 6 30 5 7 6 19 2 26 -7 10 -9 10 -14 -2 -3 -8 -19
-14 -37 -15 -17 0 -38 -6 -46 -12 -11 -10 -15 -9 -20 4 -5 12 -10 14 -19 6 -9
-8 -14 -7 -17 2 -3 8 -7 6 -11 -6 -4 -9 -3 -15 1 -12 5 3 9 -1 9 -9 0 -9 -7
-11 -21 -5 -14 5 -23 19 -26 41 l-6 34 -7 -34 c-4 -18 -5 -36 -2 -40 2 -4 -2
-8 -10 -8 -8 0 -11 5 -8 10 4 7 -1 8 -13 4 -18 -7 -18 -7 0 7 18 14 18 15 -3
13 -11 -1 -21 -5 -21 -10 0 -5 -9 -5 -20 -2 -13 4 -22 1 -26 -9 -5 -13 -8 -14
-28 -1 -13 8 -26 12 -29 8 -4 -3 -7 0 -7 7 0 7 -2 11 -5 8 -3 -3 -2 -13 1 -22
5 -12 9 -14 14 -6 5 8 9 7 13 -4 4 -9 2 -16 -4 -16 -6 0 -8 -4 -4 -9 3 -5 0
-13 -6 -17 -8 -4 -9 -3 -5 4 4 7 1 12 -8 12 -9 0 -16 5 -16 10 0 6 -5 10 -11
10 -5 0 -7 -5 -3 -12 5 -7 3 -8 -6 -3 -10 6 -9 11 5 22 11 7 13 13 6 13 -7 0
-9 5 -6 10 3 6 1 10 -5 10 -7 0 -9 -7 -6 -16 6 -17 -11 -17 -59 1 -12 4 -9 -1
8 -11 29 -20 37 -40 11 -30 -9 4 -24 1 -33 -6 -14 -12 -14 -11 -2 4 11 15 11
19 -3 24 -9 4 -24 0 -34 -8 -19 -17 -46 -13 -36 4 4 7 2 8 -5 4 -6 -4 -10 -13
-9 -20 2 -6 -1 -11 -7 -11 -5 0 -9 3 -8 8 2 4 -5 15 -16 26 -18 18 -19 18 -35
-5 -13 -16 -25 -21 -47 -19 -17 3 -29 -1 -29 -7 0 -6 -2 -9 -5 -6 -9 8 6 38
16 32 5 -3 9 0 9 6 0 7 -7 9 -16 6 -9 -4 -23 -1 -30 5 -9 8 -14 8 -14 1 0 -6
5 -14 10 -17 6 -3 9 -14 9 -23 -1 -15 -2 -15 -6 1 -2 9 -9 15 -14 12 -5 -4 -9
2 -9 13 0 10 -7 19 -15 19 -8 0 -12 -4 -9 -9 3 -4 7 -17 9 -28 3 -17 1 -18
-14 -10 -10 5 -20 7 -23 5 -3 -3 -5 2 -5 10 0 8 4 15 9 15 4 0 8 -4 8 -10 0
-5 5 -10 12 -10 29 0 -24 34 -59 37 -20 2 -44 9 -52 16 -12 9 -13 9 -7 0 4 -8
1 -13 -8 -13 -9 0 -16 6 -17 13 0 6 -4 3 -9 -8 -5 -13 -8 6 -8 57 0 50 -6 86
-16 105 l-15 28 7 -35 c4 -19 7 -69 7 -110 -2 -341 -479 -495 -725 -234 -77
82 -95 128 -95 249 0 90 3 105 26 147 23 40 24 45 8 35 -16 -10 -21 -9 -29 3
-5 8 -6 18 -3 24 3 5 1 6 -6 2 -6 -4 -9 -12 -6 -17 5 -8 -7 -13 -27 -11 -3 1
-9 -5 -12 -13 -3 -9 0 -12 10 -8 8 3 14 -1 14 -11 0 -10 -6 -13 -15 -10 -8 4
-15 1 -15 -5 0 -6 5 -11 12 -11 6 0 8 -3 5 -6 -4 -4 -14 -1 -24 7 -14 11 -15
11 -9 0 7 -10 4 -12 -12 -7 -11 4 -23 2 -27 -3 -4 -7 1 -8 11 -4 12 4 15 3 10
-5 -4 -7 -2 -12 5 -12 9 0 7 -4 -3 -12 -9 -7 -19 -20 -22 -28 -3 -8 -4 -5 -2
8 2 12 0 22 -5 22 -5 0 -9 8 -9 17 0 15 -2 14 -18 -3 -18 -18 -18 -19 0 -26
24 -10 23 -17 -2 -11 -16 4 -19 2 -14 -13 5 -15 4 -16 -4 -4 -6 8 -8 18 -6 22
3 4 0 8 -6 8 -6 0 -8 5 -4 12 4 7 3 8 -5 4 -6 -4 -9 -11 -6 -16 7 -11 -5 -40
-17 -40 -5 0 -6 5 -2 12 5 8 2 9 -9 5 -11 -4 -17 -1 -17 9 0 12 4 13 22 3 18
-10 20 -9 14 6 -3 10 -2 23 4 30 7 8 5 12 -5 12 -8 0 -12 -4 -9 -8 8 -14 -17
-22 -29 -9 -9 10 -9 11 2 5 9 -5 12 -4 8 3 -7 11 -44 10 -39 -1 1 -4 2 -14 2
-23 0 -9 5 -12 13 -8 7 4 9 3 4 -2 -22 -24 -67 7 -67 46 0 20 -2 22 -10 10 -9
-13 -10 -13 -11 0 -1 8 -1 19 0 23 1 5 -3 5 -9 2 -6 -4 -9 -14 -5 -22 4 -13 3
-14 -9 -4 -10 8 -16 9 -21 1 -14 -22 -23 -8 -14 20 6 17 14 30 18 30 4 0 8 7
8 15 0 10 -6 13 -19 9 -10 -3 -18 -3 -18 0 0 5 114 43 150 49 14 3 107 5 207
5 l182 0 -34 -29z m3215 -28 c8 -16 7 -20 -9 -18 -12 1 -17 7 -13 19 6 23 9
23 22 -1z m-3750 -21 c0 -5 -5 -10 -11 -10 -5 0 -7 5 -4 10 3 6 8 10 11 10 2
0 4 -4 4 -10z m-211 -41 c-5 -10 -14 -21 -21 -25 -7 -5 -8 -3 -2 7 5 8 9 19
10 24 0 6 2 17 3 25 1 13 3 13 10 1 6 -9 6 -22 0 -32z m246 31 c-3 -5 -12 -10
-18 -10 -7 0 -6 4 3 10 19 12 23 12 15 0z m4312 -12 c-3 -8 -6 -5 -6 6 -1 11
2 17 5 13 3 -3 4 -12 1 -19z m-3897 2 c0 -5 -2 -10 -4 -10 -3 0 -8 5 -11 10
-3 6 -1 10 4 10 6 0 11 -4 11 -10z m-500 -3 c0 -2 -15 -16 -32 -33 l-33 -29
29 33 c28 30 36 37 36 29z m56 -19 c4 -7 3 -8 -4 -4 -7 4 -12 2 -12 -3 0 -6
-5 -11 -11 -11 -8 0 -8 5 1 15 15 18 17 18 26 3z m424 -23 c0 -8 -2 -15 -4
-15 -2 0 -6 7 -10 15 -3 8 -1 15 4 15 6 0 10 -7 10 -15z m3907 -22 c-3 -10 -5
-4 -5 12 0 17 2 24 5 18 2 -7 2 -21 0 -30z m-610 -15 c-3 -8 -6 -5 -6 6 -1 11
2 17 5 13 3 -3 4 -12 1 -19z m-3330 -3 c0 -18 -24 -28 -33 -13 -4 7 -3 8 4 4
7 -4 12 -1 12 8 0 9 4 16 8 16 5 0 9 -7 9 -15z m16 -26 c-6 -6 -9 -1 -7 13 3
33 6 36 11 14 3 -10 1 -22 -4 -27z m2892 -17 c-3 -3 -11 0 -18 7 -9 10 -8 11
6 5 10 -3 15 -9 12 -12z m-324 -45 c-6 -8 -7 -18 -3 -22 4 -5 1 -5 -6 -1 -10
6 -10 11 -1 22 6 8 14 14 16 14 3 0 0 -6 -6 -13z m34 -6 c-3 -6 -11 -11 -16
-11 -5 0 -4 6 3 14 14 16 24 13 13 -3z m180 7 c5 4 5 1 1 -6 -6 -10 -11 -10
-22 -1 -8 6 -14 14 -14 16 0 3 6 0 13 -6 8 -6 18 -7 22 -3z m922 -34 c-3 -3
-12 -4 -19 -1 -8 3 -5 6 6 6 11 1 17 -2 13 -5z m-1997 -49 c14 -19 14 -19 -2
-6 -10 7 -18 18 -18 24 0 6 1 8 3 6 1 -2 9 -13 17 -24z m-189 -8 c-10 -9 -11
-8 -5 6 3 10 9 15 12 12 3 -3 0 -11 -7 -18z m530 6 c13 -16 12 -17 -3 -4 -10
7 -18 15 -18 17 0 8 8 3 21 -13z m-31 -5 c0 -6 -3 -8 -7 -5 -3 4 -12 2 -20 -5
-11 -8 -12 -7 -7 6 7 18 34 22 34 4z m-2833 -155 c-2 -21 -4 -4 -4 37 0 41 2
58 4 38 2 -21 2 -55 0 -75z m450 -409 c-3 -3 -12 -4 -19 -1 -8 3 -5 6 6 6 11
1 17 -2 13 -5z m66 -1 c-7 -2 -21 -2 -30 0 -10 3 -4 5 12 5 17 0 24 -2 18 -5z
m90 0 c-7 -2 -21 -2 -30 0 -10 3 -4 5 12 5 17 0 24 -2 18 -5z m75 0 c-10 -2
-28 -2 -40 0 -13 2 -5 4 17 4 22 1 32 -1 23 -4z m80 0 c-10 -2 -26 -2 -35 0
-10 3 -2 5 17 5 19 0 27 -2 18 -5z m49 1 c-3 -3 -12 -4 -19 -1 -8 3 -5 6 6 6
11 1 17 -2 13 -5z m106 -1 c-18 -2 -48 -2 -65 0 -18 2 -4 4 32 4 36 0 50 -2
33 -4z m2240 0 c-402 -2 -1064 -2 -1470 0 -406 1 -76 2 732 2 809 0 1141 -1
738 -2z m880 0 c-7 -2 -21 -2 -30 0 -10 3 -4 5 12 5 17 0 24 -2 18 -5z m-3990
-171 c-41 -3 -58 -22 -33 -37 6 -3 10 1 10 9 0 9 5 16 10 16 6 0 9 -3 9 -7 -5
-28 3 -53 16 -53 12 0 15 -19 15 -112 2 -743 -1 -1612 -5 -1616 -3 -3 -5 41
-5 98 0 143 -12 118 -15 -30 -1 -75 -6 -125 -13 -132 -14 -14 -14 -14 -13 92
0 41 -4 82 -9 90 -6 9 -9 -277 -10 -739 0 -415 -2 -757 -5 -759 -3 -3 -5 714
-5 1594 l0 1599 48 -5 47 -5 -42 -3z m5715 -586 c2 -503 0 -598 -11 -593 -42
16 -223 29 -331 24 -496 -24 -946 -358 -1100 -819 -85 -254 -87 -540 -5 -803
53 -168 240 -512 472 -868 110 -168 109 -167 104 -167 -2 0 -18 20 -37 45
l-34 45 -135 -2 -136 -2 125 -6 c69 -3 115 -7 103 -8 -12 -1 -25 -7 -28 -12
-4 -6 -11 -8 -16 -4 -6 3 -13 -3 -16 -15 -3 -12 -13 -22 -22 -22 -9 -1 16 -7
54 -14 57 -10 -258 -13 -1728 -14 l-1799 -1 154 160 c132 137 156 158 178 154
l25 -4 -24 10 c-13 6 -27 8 -30 5 -3 -3 -48 -47 -100 -98 -52 -50 -80 -75 -62
-54 17 21 29 42 26 48 -4 5 1 9 10 9 9 0 13 5 10 10 -3 6 -1 10 4 10 6 0 11 8
11 18 0 11 9 29 20 42 11 13 20 29 20 37 0 17 20 17 21 1 1 -7 4 -3 7 10 4 13
11 24 17 25 13 3 52 41 48 48 -1 3 9 12 23 20 14 7 30 21 35 31 5 10 17 18 26
18 13 0 13 3 3 16 -8 8 -9 14 -4 13 21 -4 34 2 34 16 0 12 17 15 88 17 l87 1
-105 7 c-100 7 -190 24 -190 36 0 4 12 3 27 -1 15 -3 64 -11 111 -16 274 -31
574 102 747 333 89 118 148 279 162 443 l6 75 94 0 c104 0 142 14 162 57 7 16
11 144 11 374 0 373 -3 397 -49 426 -14 9 -139 13 -468 14 -246 1 -504 6 -573
11 -208 16 -369 -11 -526 -88 -101 -49 -174 -107 -251 -197 -131 -155 -202
-383 -173 -556 14 -86 -3 -159 -55 -236 -19 -27 -181 -196 -360 -375 l-325
-325 0 1648 0 1647 2833 -2 2832 -3 3 -599z m89 -109 c-1 -128 -2 -20 -2 238
0 259 1 363 2 232 2 -131 2 -343 0 -470z m-176 -582 c159 -28 331 -101 461
-197 130 -96 313 -316 343 -413 4 -11 -6 3 -22 30 -63 110 -157 228 -223 281
-21 17 -28 20 -17 8 25 -29 21 -39 -8 -20 -39 25 -38 19 3 -22 20 -20 52 -58
71 -82 26 -34 21 -31 -20 14 -201 222 -564 361 -856 328 -250 -29 -447 -119
-617 -281 -152 -146 -246 -328 -281 -546 -35 -215 -2 -412 111 -654 24 -52 43
-96 41 -98 -10 -9 -112 232 -143 335 -20 68 -32 99 -29 74 2 -24 7 -47 10 -53
4 -5 -2 -6 -11 -2 -12 5 -15 3 -9 -6 6 -10 3 -11 -15 -1 -21 11 -22 10 -15
-22 9 -45 70 -198 111 -280 19 -38 32 -68 28 -68 -9 0 -111 222 -138 301 -125
373 -36 770 237 1055 162 170 361 278 590 319 98 18 297 18 398 0z m-3636
-265 c38 -25 29 -25 -26 0 -27 12 -36 20 -24 20 11 0 34 -9 50 -20z m785 0
c13 -21 -6 -38 -22 -21 -11 11 -10 12 1 6 10 -6 12 -4 7 4 -6 9 -11 9 -24 -1
-12 -10 -14 -10 -8 0 9 14 46 13 -387 17 -186 1 -341 6 -345 9 -3 4 168 5 381
4 331 -3 389 -5 397 -18z m-1048 -42 l78 -11 -53 -57 c-28 -30 -117 -124 -196
-208 l-143 -152 58 -185 c32 -102 60 -189 63 -194 7 -10 348 -111 377 -111 9
0 38 17 63 37 43 34 284 237 371 311 l39 33 11 -42 c51 -189 19 -349 -106
-525 -87 -124 -250 -242 -399 -291 -108 -35 -297 -44 -410 -18 -326 72 -585
403 -588 750 -1 121 13 184 65 295 33 69 56 100 127 170 174 172 385 238 643
198z m288 -18 c-6 -11 -12 -20 -14 -20 -2 0 -2 9 1 20 3 11 9 20 15 20 5 0 4
-9 -2 -20z m787 -12 c-3 -7 -5 -2 -5 12 0 14 2 19 5 13 2 -7 2 -19 0 -25z
m-933 -765 c0 -2 -52 14 -115 35 l-114 39 -34 107 c-23 71 -31 113 -25 121 5
7 70 82 144 168 l135 154 5 -311 c3 -171 5 -312 4 -313z m3797 505 c405 -192
377 -750 -44 -907 -265 -98 -560 58 -632 334 -44 170 12 364 138 481 110 103
199 135 358 131 98 -3 112 -6 180 -39z m-5644 0 c-3 -7 -5 -2 -5 12 0 14 2 19
5 13 2 -7 2 -19 0 -25z m6443 -93 c0 -5 -5 -3 -10 5 -5 8 -10 20 -10 25 0 6 5
3 10 -5 5 -8 10 -19 10 -25z m-6443 -7 c-3 -8 -6 -5 -6 6 -1 11 2 17 5 13 3
-3 4 -12 1 -19z m2405 3 c23 -18 88 -128 88 -147 0 -5 -16 20 -35 56 -38 70
-66 100 -96 100 -10 0 -54 -32 -96 -72 l-78 -71 76 76 c81 82 100 89 141 58z
m-222 -134 c0 -1 -24 -25 -52 -52 l-53 -50 50 53 c46 48 55 57 55 49z m3826
-496 c-19 -40 -36 -71 -39 -69 -2 2 -34 -25 -70 -59 -60 -56 -161 -122 -212
-138 -11 -4 16 13 60 37 98 53 217 168 260 250 42 80 42 65 1 -21z m-5026
-180 c61 -82 145 -159 240 -219 30 -19 57 -37 60 -39 2 -2 -266 -274 -595
-604 -676 -677 -654 -659 -792 -659 -132 0 -238 61 -289 168 -23 47 -28 70
-28 132 1 135 -22 108 628 760 468 470 588 596 611 641 l28 55 39 -78 c22 -43
66 -113 98 -157z m1377 149 c-41 -101 -88 -168 -173 -249 -121 -115 -257 -179
-433 -202 -87 -12 -226 -7 -291 11 -26 7 -20 7 25 2 90 -11 263 -7 328 7 81
18 215 72 273 111 124 84 238 233 275 359 7 24 15 39 17 33 2 -6 -8 -38 -21
-72z m3583 -93 c0 -2 -10 -12 -22 -23 l-23 -19 19 23 c18 21 26 27 26 19z
m-821 -119 c25 -12 28 -16 11 -12 l-25 5 25 -22 25 -21 -25 15 c-14 8 -24 20
-22 26 1 6 -6 11 -15 11 -10 0 -43 23 -73 51 l-55 51 59 -44 c32 -23 75 -51
95 -60z m751 49 c0 -2 -10 -12 -22 -23 l-23 -19 19 23 c18 21 26 27 26 19z
m-650 -87 c30 -10 46 -19 35 -19 -18 0 -107 36 -95 38 3 1 30 -8 60 -19z m430
0 c-8 -5 -22 -9 -30 -9 -10 0 -8 3 5 9 27 12 43 12 25 0z m96 -5 c-11 -8 -25
-15 -30 -15 -6 1 0 7 14 15 32 19 40 18 16 0z m-520 -43 c-5 -4 -66 26 -66 33
0 3 16 -3 35 -12 19 -9 33 -18 31 -21z m339 23 c-23 -8 -82 -13 -140 -13
l-100 1 118 7 c64 4 120 10 124 13 3 4 13 7 22 6 9 -1 -2 -7 -24 -14z m-252
-2 c-7 -2 -19 -2 -25 0 -7 3 -2 5 12 5 14 0 19 -2 13 -5z m-38 -33 c13 -6 15
-9 5 -9 -8 0 -22 4 -30 9 -18 12 -2 12 25 0z m58 -17 c-7 -2 -19 -2 -25 0 -7
3 -2 5 12 5 14 0 19 -2 13 -5z m222 -3 c-16 -4 -41 -8 -55 -8 -22 0 -22 1 5 8
17 4 41 8 55 8 22 0 22 -1 -5 -8z m-162 -7 c-7 -2 -21 -2 -30 0 -10 3 -4 5 12
5 17 0 24 -2 18 -5z m60 -10 c-7 -2 -19 -2 -25 0 -7 3 -2 5 12 5 14 0 19 -2
13 -5z m-898 -33 c9 -16 13 -30 11 -30 -3 0 -12 14 -21 30 -9 17 -13 30 -11
30 3 0 12 -13 21 -30z m45 -80 c6 -11 8 -20 6 -20 -3 0 -10 9 -16 20 -6 11 -8
20 -6 20 3 0 10 -9 16 -20z m-3155 -138 c-6 -4 -73 -69 -151 -142 l-140 -135
142 143 c79 78 146 142 150 142 5 0 4 -4 -1 -8z m3243 -17 c-3 -3 -9 2 -12 12
-6 14 -5 15 5 6 7 -7 10 -15 7 -18z m-4708 -58 c0 -2 -13 -16 -30 -32 l-30
-29 0 25 c0 16 3 20 8 11 7 -9 13 -8 27 8 17 19 25 24 25 17z m3645 -536 c152
-5 161 -6 85 -11 l-85 -6 85 -2 c48 -1 90 -6 96 -12 6 -6 162 -11 404 -13 217
-1 -397 -2 -1365 -2 -968 0 -1546 2 -1285 5 261 3 466 7 455 9 -11 2 -33 3
-50 2 -26 -1 -27 1 -10 8 17 8 13 10 -20 12 -163 12 1336 20 1690 10z m-1767
-8 c-10 -2 -26 -2 -35 0 -10 3 -2 5 17 5 19 0 27 -2 18 -5z m2059 1 c-3 -3
-12 -4 -19 -1 -8 3 -5 6 6 6 11 1 17 -2 13 -5z"/>
<path d="M3052 8136 c-1 -192 -4 -347 -6 -345 -3 3 -8 20 -11 39 -11 60 -18
48 -13 -21 10 -123 73 -189 182 -189 64 0 108 23 143 73 27 41 28 46 29 177 1
74 -1 116 -3 93 -2 -24 -8 -43 -14 -43 -5 0 -9 -6 -9 -14 0 -7 -7 -19 -15 -26
-8 -7 -15 -25 -15 -41 0 -16 -4 -29 -10 -29 -5 0 -10 -9 -10 -19 0 -28 -11
-52 -21 -45 -5 3 -9 -2 -9 -11 0 -17 -26 -49 -42 -51 -4 -1 -11 -3 -15 -4 -5
-1 -11 -2 -14 -2 -4 1 -23 2 -43 4 -20 1 -36 6 -36 10 0 4 -6 5 -13 2 -8 -3
-20 3 -28 12 -11 14 -15 91 -19 398 l-6 381 -2 -349z"/>
<path d="M3373 8115 c0 -22 2 -30 4 -17 2 12 2 30 0 40 -3 9 -5 -1 -4 -23z"/>
<path d="M3021 7894 c0 -11 3 -14 6 -6 3 7 2 16 -1 19 -3 4 -6 -2 -5 -13z"/>
<path d="M6365 8509 c-4 -6 -5 -12 -2 -15 2 -3 7 2 10 11 7 17 1 20 -8 4z"/>
<path d="M2528 8053 c6 -2 18 -2 25 0 6 3 1 5 -13 5 -14 0 -19 -2 -12 -5z"/>
<path d="M2588 8053 c12 -2 30 -2 40 0 9 3 -1 5 -23 4 -22 0 -30 -2 -17 -4z"/>
<path d="M2458 8043 c7 -3 16 -2 19 1 4 3 -2 6 -13 5 -11 0 -14 -3 -6 -6z"/>
<path d="M2418 8033 c7 -3 16 -2 19 1 4 3 -2 6 -13 5 -11 0 -14 -3 -6 -6z"/>
<path d="M2355 8015 c-25 -12 -26 -14 -5 -9 28 7 60 23 45 23 -5 0 -23 -6 -40
-14z"/>
<path d="M3480 8052 c0 -4 21 -6 48 -4 75 5 82 10 15 11 -35 0 -63 -2 -63 -7z"/>
<path d="M3628 8053 c6 -2 18 -2 25 0 6 3 1 5 -13 5 -14 0 -19 -2 -12 -5z"/>
<path d="M4938 8053 c7 -3 16 -2 19 1 4 3 -2 6 -13 5 -11 0 -14 -3 -6 -6z"/>
<path d="M5248 8053 c6 -2 18 -2 25 0 6 3 1 5 -13 5 -14 0 -19 -2 -12 -5z"/>
<path d="M5803 8053 c9 -2 23 -2 30 0 6 3 -1 5 -18 5 -16 0 -22 -2 -12 -5z"/>
<path d="M5950 8053 c133 -7 280 -7 280 0 0 4 -75 6 -167 5 -93 -1 -143 -3
-113 -5z"/>
<path d="M2451 7844 c0 -11 3 -14 6 -6 3 7 2 16 -1 19 -3 4 -6 -2 -5 -13z"/>
<path d="M2725 7839 c-4 -6 -5 -12 -2 -15 2 -3 7 2 10 11 7 17 1 20 -8 4z"/>
<path d="M5960 7806 c0 -2 8 -10 18 -17 15 -13 16 -12 3 4 -13 16 -21 21 -21
13z"/>
<path d="M2497 7773 c-11 -11 -8 -23 6 -23 8 0 14 7 14 15 0 16 -9 19 -20 8z"/>
<path d="M5175 7670 c3 -6 1 -10 -6 -10 -7 0 -10 -3 -6 -6 3 -3 13 -2 22 4 16
8 16 9 1 15 -10 4 -15 3 -11 -3z"/>
<path d="M5270 7671 c0 -5 5 -13 10 -16 6 -3 10 -2 10 4 0 5 -4 13 -10 16 -5
3 -10 2 -10 -4z"/>
<path d="M4783 7613 c-7 -3 -13 -10 -13 -16 0 -8 3 -8 11 0 6 6 18 9 25 6 8
-3 14 -3 14 0 0 8 -24 14 -37 10z"/>
<path d="M3915 7592 c-16 -11 -15 -29 1 -29 8 0 12 3 9 5 -3 3 0 11 6 19 12
14 1 18 -16 5z"/>
<path d="M3986 7591 c-3 -5 1 -11 9 -15 8 -3 15 -1 15 4 0 13 -18 22 -24 11z"/>
<path d="M1966 5193 c-6 -14 -5 -15 5 -6 7 7 10 15 7 18 -3 3 -9 -2 -12 -12z"/>
<path d="M2754 6391 c-17 -10 -36 -34 -43 -52 -15 -42 -15 -728 0 -782 20 -72
16 -72 444 -75 413 -4 440 -1 478 49 18 26 19 44 18 425 l-1 399 -25 25 -25
25 -408 3 c-386 2 -409 1 -438 -17z m854 -17 c12 -8 22 -19 22 -25 0 -5 -9 0
-20 11 -19 19 -32 20 -434 17 -228 -1 -409 1 -403 5 7 4 192 8 412 8 347 0
404 -2 423 -16z m-865 -19 c-3 -9 -8 -14 -10 -11 -3 3 -2 9 2 15 9 16 15 13 8
-4z m793 -2 c-5 -16 -4 -16 6 -3 7 9 19 15 26 14 6 -1 19 -2 28 -3 10 -1 13
-7 9 -20 -4 -13 0 -20 15 -24 19 -5 20 -12 18 -149 -2 -110 -3 -122 -5 -50 -4
98 -19 126 -22 40 -2 -57 -11 -81 -11 -30 0 18 -5 32 -11 32 -5 0 -8 4 -5 8 2
4 1 14 -4 22 -7 11 -11 11 -24 1 -18 -15 -36 -6 -35 17 1 15 2 15 6 -1 5 -19
30 -17 25 2 -1 6 5 14 14 18 12 4 13 8 3 14 -7 4 -19 3 -26 -3 -9 -7 -13 -7
-13 1 0 6 -5 11 -11 11 -5 0 -8 -4 -5 -8 2 -4 1 -14 -5 -22 -7 -12 -9 -10 -9
8 0 13 -4 21 -10 17 -5 -3 -7 -13 -4 -23 5 -14 4 -15 -5 -2 -5 8 -21 16 -33
18 -13 1 -29 3 -35 4 -18 2 -16 15 3 22 8 3 13 2 10 -3 -3 -5 1 -11 9 -14 11
-5 12 -1 6 16 -5 12 -7 34 -5 49 2 21 -1 26 -14 22 -15 -5 -15 -4 1 6 9 6 21
9 26 6 4 -3 17 1 27 9 10 8 30 15 43 15 18 0 22 -4 17 -17z m-133 -55 c-2 -5
-12 -8 -21 -7 -14 0 -13 2 3 9 11 5 15 9 8 9 -6 1 -10 9 -8 19 2 9 4 22 5 27
1 6 6 -3 9 -20 4 -16 6 -33 4 -37z m-608 30 c6 -4 2 -8 -7 -8 -10 0 -18 7 -18
17 0 9 3 12 8 7 4 -5 12 -12 17 -16z m235 12 c0 -5 -5 -10 -11 -10 -5 0 -7 5
-4 10 3 6 8 10 11 10 2 0 4 -4 4 -10z m-303 -182 c-2 -35 -3 -9 -3 57 0 66 1
94 3 63 2 -32 2 -86 0 -120z m43 137 c0 -5 -5 -3 -10 5 -5 8 -10 20 -10 25 0
6 5 3 10 -5 5 -8 10 -19 10 -25z m539 28 c-3 -19 2 -27 10 -14 6 9 11 10 15 2
4 -6 2 -11 -4 -11 -6 0 -8 -5 -4 -12 4 -6 -4 -3 -18 8 -25 18 -28 34 -7 34 5
0 8 -3 8 -7z m51 -33 c0 -5 -5 -10 -11 -10 -5 0 -7 5 -4 10 3 6 8 10 11 10 2
0 4 -4 4 -10z m13 -27 c-5 -12 -3 -14 7 -8 9 6 11 4 5 -4 -5 -9 -11 -9 -17 -3
-6 6 -7 15 -4 21 11 17 16 13 9 -6z"/>
<path d="M3483 6288 c3 -9 1 -19 -6 -22 -9 -3 -9 -5 0 -5 18 -1 23 13 11 29
-8 12 -9 12 -5 -2z"/>
<path d="M3900 6383 l-31 -28 -4 -389 c-5 -433 -4 -440 58 -469 31 -15 81 -17
421 -17 435 0 445 1 472 65 12 30 14 96 12 415 -3 366 -4 379 -24 407 -11 15
-32 31 -45 34 -13 4 -205 7 -426 8 l-403 1 -30 -27z m865 1 c36 -14 45 -57 43
-211 -1 -81 -3 -131 -5 -110 -2 20 -8 35 -14 32 -8 -5 -14 23 -10 48 0 4 -4 7
-9 7 -6 0 -10 -7 -10 -16 0 -8 -5 -12 -10 -9 -7 4 -6 13 1 26 6 12 8 23 5 27
-3 3 -6 0 -6 -6 0 -7 -3 -11 -7 -11 -5 1 -10 0 -13 -1 -17 -6 -58 -4 -53 3 3
5 -9 6 -27 2 -20 -4 -30 -3 -27 3 7 10 -35 8 -55 -4 -7 -4 -10 -4 -6 1 4 4 -3
16 -15 25 -21 18 -22 18 -34 -3 -7 -12 -12 -17 -13 -10 0 6 -9 15 -20 18 -11
4 -17 11 -14 17 4 7 2 8 -4 4 -7 -4 -12 -2 -12 3 0 6 5 11 10 11 6 0 10 5 10
11 0 8 -5 8 -15 -1 -8 -7 -15 -18 -15 -25 0 -8 -10 -12 -25 -10 -16 1 -25 -3
-25 -11 0 -8 -8 -14 -17 -14 -15 0 -16 2 -3 10 8 5 11 13 6 17 -8 9 -38 -26
-31 -37 2 -4 -2 -7 -10 -7 -8 0 -12 4 -9 8 2 4 1 9 -3 12 -5 2 -2 2 5 1 11 -3
16 9 13 29 0 4 8 7 18 7 10 0 21 6 24 14 5 11 1 11 -24 -1 -16 -8 -27 -19 -24
-24 4 -5 1 -9 -4 -9 -6 0 -12 5 -12 10 -1 6 -2 16 -3 23 0 6 -14 13 -31 15
-22 2 -26 0 -15 -7 22 -15 2 -27 -20 -13 -18 11 -20 9 -21 -10 -2 -22 -2 -22
-6 -2 -6 29 -59 31 -68 3 -4 -13 -12 -18 -21 -15 -9 3 -12 1 -9 -4 3 -6 4 -10
1 -10 -3 0 -13 15 -21 33 -8 17 -13 24 -11 15 3 -9 0 -30 -7 -47 -9 -23 -16
-30 -30 -25 -10 3 -24 1 -32 -6 -9 -7 -15 -7 -19 -1 -4 6 -13 8 -21 4 -8 -3
-15 0 -15 5 0 6 12 9 26 6 15 -3 23 -1 20 5 -4 5 -2 12 4 16 5 3 10 2 10 -3 0
-5 9 -12 19 -15 26 -6 35 18 13 35 -15 12 -16 11 -3 -4 12 -16 11 -18 -2 -18
-9 0 -19 5 -23 11 -4 8 -9 8 -17 0 -15 -15 -29 -14 -25 2 2 6 -2 13 -7 14 -6
0 -9 -3 -7 -8 1 -5 -8 -9 -20 -9 -19 0 -20 -2 -8 -11 12 -9 11 -10 -6 -6 -16
3 -21 0 -20 -17 1 -11 5 -27 9 -33 5 -8 4 -13 -2 -13 -6 0 -11 -9 -11 -20 0
-11 -4 -20 -10 -20 -5 0 -10 9 -10 20 0 11 -4 20 -10 20 -6 0 -10 40 -10 100
0 81 3 102 15 106 13 5 13 9 3 22 -9 11 -9 14 -1 9 7 -5 16 1 23 13 10 20 19
20 420 20 224 0 416 -3 425 -6z m-581 -181 c-4 -22 -3 -25 5 -13 7 9 11 10 11
3 0 -20 -19 -24 -28 -6 -10 20 -5 43 9 43 5 0 7 -12 3 -27z m116 7 c-8 -5 -19
-10 -25 -10 -5 0 -3 5 5 10 8 5 20 10 25 10 6 0 3 -5 -5 -10z m-40 -4 c0 -2
-7 -9 -15 -16 -13 -11 -14 -10 -9 4 5 14 24 23 24 12z m213 -20 c15 -12 16
-14 2 -20 -9 -3 -18 1 -21 9 -4 8 -11 12 -17 8 -6 -3 -7 -1 -3 5 9 15 17 15
39 -2z m-45 -32 c-4 -3 -12 5 -18 18 -12 22 -12 22 6 6 10 -10 15 -20 12 -24z
m-298 16 c0 -5 -5 -10 -11 -10 -5 0 -7 5 -4 10 3 6 8 10 11 10 2 0 4 -4 4 -10z"/>
<path d="M3998 6373 c34 -2 90 -2 125 0 34 2 6 3 -63 3 -69 0 -97 -1 -62 -3z"/>
<path d="M4198 6373 c6 -2 18 -2 25 0 6 3 1 5 -13 5 -14 0 -19 -2 -12 -5z"/>
<path d="M4273 6373 c20 -2 54 -2 75 0 20 2 3 4 -38 4 -41 0 -58 -2 -37 -4z"/>
<path d="M4448 6373 c34 -2 90 -2 125 0 34 2 6 3 -63 3 -69 0 -97 -1 -62 -3z"/>
<path d="M3892 6270 c0 -14 2 -19 5 -12 2 6 2 18 0 25 -3 6 -5 1 -5 -13z"/>
<path d="M4167 6279 c7 -7 15 -10 18 -7 3 3 -2 9 -12 12 -14 6 -15 5 -6 -5z"/>
<path d="M4126 6241 c-4 -5 -2 -12 3 -15 5 -4 12 -2 15 3 4 5 2 12 -3 15 -5 4
-12 2 -15 -3z"/>
<path d="M4485 6220 c-3 -5 -1 -10 4 -10 6 0 11 5 11 10 0 6 -2 10 -4 10 -3 0
-8 -4 -11 -10z"/>
<path d="M4538 6223 c6 -2 12 -11 12 -18 0 -7 7 -15 15 -19 18 -7 20 10 3 17
-10 4 -9 8 2 16 12 9 9 11 -15 10 -16 0 -24 -3 -17 -6z"/>
<path d="M3892 6150 c0 -14 2 -19 5 -12 2 6 2 18 0 25 -3 6 -5 1 -5 -13z"/>
<path d="M5094 6396 c-67 -29 -64 0 -64 -634 0 -633 -2 -615 64 -646 30 -14
97 -16 604 -16 l570 0 53 73 c30 39 84 104 121 144 l68 72 0 470 c0 330 -3
477 -11 495 -26 57 -19 56 -726 56 -523 -1 -654 -3 -679 -14z m1370 -25 c22
-21 26 -32 24 -80 l-1 -56 -7 45 c-5 29 -8 -15 -10 -125 -1 -93 -3 -181 -5
-195 -1 -14 -3 -155 -4 -315 -1 -159 -5 -285 -9 -279 -11 16 -35 22 -57 14
-11 -4 -26 -3 -33 3 -9 7 -11 6 -5 -8 5 -14 3 -17 -10 -12 -10 4 -17 1 -17 -6
0 -9 -2 -9 -8 1 -6 8 -28 11 -75 7 -56 -4 -65 -2 -61 10 7 18 -21 21 -32 3 -4
-7 -3 -8 4 -4 7 4 12 3 12 -2 0 -5 -9 -12 -21 -15 -16 -4 -19 -2 -15 10 5 13
4 14 -9 3 -9 -7 -27 -10 -44 -7 -15 3 -33 1 -38 -4 -8 -8 -18 -7 -33 1 -16 8
-25 9 -29 2 -4 -6 -12 -8 -18 -4 -14 9 -134 2 -128 -7 2 -4 -2 -8 -10 -8 -8 0
-11 5 -8 11 4 7 1 6 -8 -1 -17 -13 -49 5 -49 28 -1 11 -3 11 -13 -1 -7 -9 -25
-25 -41 -37 -26 -21 -30 -21 -57 -8 -37 20 -48 19 -23 -1 10 -8 14 -13 7 -9
-7 3 -21 -3 -31 -13 -22 -22 -57 -37 -46 -20 5 7 0 9 -14 6 -15 -4 -22 -2 -22
9 0 8 -4 12 -9 9 -5 -3 -12 2 -15 11 -6 15 -8 15 -17 3 -6 -11 -11 -12 -16 -4
-5 6 -16 10 -26 8 -15 -2 -16 0 -6 12 14 17 5 18 -23 3 -17 -9 -20 -9 -15 4 5
12 1 14 -21 8 -15 -4 -62 -6 -105 -5 -58 2 -76 0 -71 -9 4 -7 -2 -3 -14 7 -17
14 -22 16 -22 5 0 -11 -2 -11 -10 1 -9 13 -10 13 -10 0 -1 -13 -2 -13 -13 1
-17 22 -37 12 -39 -19 -1 -15 -5 88 -9 228 -4 140 -8 260 -10 267 -1 6 -9 9
-17 6 -12 -5 -13 31 -8 247 5 271 7 278 61 301 11 4 316 7 677 6 l656 -2 26
-24z m-693 -1035 c-6 -8 -22 -16 -34 -20 -21 -5 -21 -4 3 14 29 23 48 26 31 6z
m-401 0 c0 -3 -4 -8 -10 -11 -5 -3 -10 -1 -10 4 0 6 5 11 10 11 6 0 10 -2 10
-4z m305 -34 c-3 -3 -11 0 -18 7 -9 10 -8 11 6 5 10 -3 15 -9 12 -12z m-50 -9
c-19 -13 -31 -11 -21 5 3 5 13 9 22 9 15 0 15 -2 -1 -14z m-187 -90 c-10 -2
-26 -2 -35 0 -10 3 -2 5 17 5 19 0 27 -2 18 -5z m105 0 c-13 -2 -35 -2 -50 0
-16 2 -5 4 22 4 28 0 40 -2 28 -4z m145 0 c-21 -2 -55 -2 -75 0 -21 2 -4 4 37
4 41 0 58 -2 38 -4z m365 0 c-7 -2 -19 -2 -25 0 -7 3 -2 5 12 5 14 0 19 -2 13
-5z m60 0 c-7 -2 -21 -2 -30 0 -10 3 -4 5 12 5 17 0 24 -2 18 -5z"/>
<path d="M5917 5985 l-240 -246 -117 116 c-68 67 -125 115 -136 115 -11 0 -50
-31 -88 -69 -61 -62 -68 -73 -63 -99 3 -16 1 -34 -5 -40 -8 -8 8 -32 60 -89
103 -114 327 -333 340 -333 7 0 35 22 64 48 97 89 618 619 618 628 0 5 -5 25
-10 45 -11 41 -137 169 -166 169 -9 0 -124 -110 -257 -245z m342 163 l71 -72
-330 -331 -330 -330 -195 195 c-107 107 -195 199 -195 203 0 16 124 147 140
147 8 0 68 -53 133 -118 l118 -119 246 249 c136 136 252 248 258 248 7 0 44
-33 84 -72z"/>
<path d="M6240 5380 c0 -5 5 -10 11 -10 5 0 7 5 4 10 -3 6 -8 10 -11 10 -2 0
-4 -4 -4 -10z"/>
<path d="M5560 5345 c0 -2 6 -8 13 -14 10 -8 14 -7 14 2 0 8 -6 14 -14 14 -7
0 -13 -1 -13 -2z"/>
<path d="M5546 5327 c3 -10 9 -15 12 -12 3 3 0 11 -7 18 -10 9 -11 8 -5 -6z"/>
<path d="M5063 4896 l-28 -24 -3 -386 c-3 -425 -2 -430 58 -461 44 -23 817
-22 861 1 57 29 59 47 59 443 0 200 -4 371 -9 384 -6 14 -20 35 -32 46 -22 21
-30 21 -450 21 l-428 0 -28 -24z m891 -1 c17 -13 18 -15 3 -15 -9 0 -17 -6
-17 -12 0 -10 -2 -10 -8 0 -7 10 -62 12 -243 12 -129 -1 -254 -1 -277 0 -24 0
-51 -5 -60 -12 -12 -10 -14 -10 -8 0 5 8 0 12 -13 12 -15 0 -19 -5 -15 -17 5
-16 4 -16 -5 -2 -16 24 -119 25 -138 1 -8 -9 -12 -11 -8 -4 3 6 1 12 -4 12 -6
0 -11 -6 -11 -14 0 -8 -7 -17 -16 -20 -14 -5 -15 -4 -5 8 9 11 4 11 -24 -2
-19 -9 -35 -22 -35 -29 0 -7 -4 -13 -9 -13 -15 0 6 83 25 97 28 20 841 18 868
-2z m17 -32 c0 -5 2 -16 4 -26 2 -11 -2 -16 -8 -14 -14 4 -19 47 -6 47 5 0 9
-3 10 -7z m-853 -54 c3 -12 2 -12 -6 0 -6 8 -15 10 -22 6 -9 -5 -11 -4 -6 4
10 15 28 10 34 -10z"/>
<path d="M3308 3093 c12 -2 30 -2 40 0 9 3 -1 5 -23 4 -22 0 -30 -2 -17 -4z"/>
<path d="M6392 4280 c0 -14 2 -19 5 -12 2 6 2 18 0 25 -3 6 -5 1 -5 -13z"/>
<path d="M2819 3927 c-50 -30 -989 -951 -1011 -990 -22 -38 -23 -115 -4 -160
42 -98 177 -145 257 -89 13 10 243 238 510 507 384 387 489 498 499 529 47
146 -122 283 -251 203z"/>
<path d="M4093 2963 c9 -2 25 -2 35 0 9 3 1 5 -18 5 -19 0 -27 -2 -17 -5z"/>
<path d="M4156 2955 c7 -17 84 -22 84 -6 0 5 8 12 18 14 9 3 -11 5 -45 6 -52
1 -61 -2 -57 -14z"/>
<path d="M4288 2963 c7 -3 16 -2 19 1 4 3 -2 6 -13 5 -11 0 -14 -3 -6 -6z"/>
<path d="M5498 2963 c12 -2 30 -2 40 0 9 3 -1 5 -23 4 -22 0 -30 -2 -17 -4z"/>
<path d="M5573 2963 c9 -2 23 -2 30 0 6 3 -1 5 -18 5 -16 0 -22 -2 -12 -5z"/>
<path d="M5635 2960 c3 -5 8 -10 11 -10 2 0 4 5 4 10 0 6 -5 10 -11 10 -5 0
-7 -4 -4 -10z"/>
<path d="M4078 2943 c6 -2 18 -2 25 0 6 3 1 5 -13 5 -14 0 -19 -2 -12 -5z"/>
<path d="M5688 2943 c6 -2 18 -2 25 0 6 3 1 5 -13 5 -14 0 -19 -2 -12 -5z"/>
</g>
</svg>
